<svg width="20" height="20" viewBox="0 0 20 20" fill="none" xmlns="http://www.w3.org/2000/svg">
<g id="jt-instagram">
<path id="Vector" d="M10.0002 7.36133C8.57379 7.36133 7.36133 8.57379 7.36133 10.0002C7.36133 11.4266 8.57379 12.6391 10.0002 12.6391C11.4266 12.6391 12.6391 11.4266 12.6391 10.0002C12.6391 8.57379 11.4266 7.36133 10.0002 7.36133Z" fill="white"/>
<path id="Vector_2" d="M13.3825 2.0835H6.68931C4.0984 2.0835 2.08325 4.09865 2.08325 6.61759V13.3108C2.08325 15.9017 4.0984 17.9168 6.68931 17.9168H13.3825C15.9014 17.9168 17.9166 15.9017 17.9166 13.3108V6.61759C17.9166 4.09865 15.9014 2.0835 13.3825 2.0835ZM9.99992 14.1744C7.69689 14.1744 5.89765 12.3032 5.89765 10.0721C5.89765 7.84107 7.69689 5.89789 9.99992 5.89789C12.3029 5.89789 14.1022 7.7691 14.1022 10.0002C14.1022 12.2312 12.3029 14.1744 9.99992 14.1744ZM14.2461 6.76153C13.7423 6.76153 13.3105 6.32971 13.3105 5.82592C13.3105 5.32213 13.7423 4.89031 14.2461 4.89031C14.7499 4.89031 15.1817 5.32213 15.1817 5.82592C15.1817 6.32971 14.7499 6.76153 14.2461 6.76153Z" fill="white"/>
</g>
</svg>
