<svg width="20" height="20" viewBox="0 0 20 20" fill="none" xmlns="http://www.w3.org/2000/svg">
<g id="jt-youtube">
<g id="Group">
<path id="Exclude" fill-rule="evenodd" clip-rule="evenodd" d="M17.1648 3.92958C17.9538 4.13979 18.5748 4.76394 18.785 5.5595C19.1666 6.99861 19.1634 9.99973 19.1634 9.99973C19.1634 9.99973 19.1634 13.0008 18.7817 14.44C18.5715 15.2323 17.9506 15.8564 17.1615 16.0699C15.7321 16.4547 9.9983 16.4547 9.9983 16.4547C9.9983 16.4547 4.26449 16.4547 2.83507 16.0699C2.04599 15.8597 1.42507 15.2355 1.21486 14.44C0.833252 13.0008 0.833252 9.99973 0.833252 9.99973C0.833252 9.99973 0.833252 6.99861 1.21809 5.55626C1.4283 4.76394 2.04922 4.13979 2.83831 3.92635C4.26772 3.5415 10.0015 3.5415 10.0015 3.5415C10.0015 3.5415 15.7321 3.5415 17.1648 3.92958ZM12.9183 9.99999L8.12557 7.27376V12.7262L12.9183 9.99999Z" fill="white"/>
</g>
</g>
</svg>
